<svg width="24" height="24" viewBox="0 0 24 24" fill="none" xmlns="http://www.w3.org/2000/svg">
<path d="M9.39 6.01021C9.57 6.26021 9.7 6.49021 9.79 6.71021C9.88 6.92021 9.93 7.13021 9.93 7.32021C9.93 7.56021 9.86 7.80021 9.72 8.03021C9.59 8.26021 9.4 8.50021 9.16 8.74021L8.4 9.53021C8.29 9.64021 8.24 9.77021 8.24 9.93021C8.24 10.0102 8.25 10.0802 8.27 10.1602C8.3 10.2402 8.33 10.3002 8.35 10.3602C8.53 10.6902 8.84 11.1202 9.28 11.6402C9.73 12.1602 10.21 12.6902 10.73 13.2202C11.27 13.7502 11.79 14.2402 12.32 14.6902C12.84 15.1302 13.27 15.4302 13.61 15.6102C13.66 15.6302 13.72 15.6602 13.79 15.6902C13.87 15.7202 13.95 15.7302 14.04 15.7302C14.21 15.7302 14.34 15.6702 14.45 15.5602L15.21 14.8102C15.46 14.5602 15.7 14.3702 15.93 14.2502C16.16 14.1102 16.39 14.0402 16.64 14.0402C16.83 14.0402 17.03 14.0802 17.25 14.1702C17.47 14.2602 17.7 14.3902 17.95 14.5602L21.26 16.9102C21.52 17.0902 21.7 17.3002 21.81 17.5502C21.91 17.8002 21.97 18.0502 21.97 18.3302C21.97 18.6902 21.89 19.0602 21.72 19.4202C21.55 19.7802 21.33 20.1202 21.04 20.4402C20.55 20.9802 20.01 21.3702 19.4 21.6202C18.8 21.8702 18.15 22.0002 17.45 22.0002C16.43 22.0002 15.34 21.7602 14.19 21.2702C13.04 20.7802 11.89 20.1202 10.75 19.2902C9.6 18.4502 8.51 17.5202 7.47 16.4902C6.44 15.4502 5.51 14.3602 4.68 13.2202C3.86 12.0802 3.2 10.9402 2.72 9.81021C2.24 8.67021 2 7.58021 2 6.54021C2 5.86021 2.12 5.21021 2.36 4.61021C2.6 4.00021 2.98 3.44021 3.51 2.94021C4.15 2.31021 4.85 2.00021 5.59 2.00021C5.87 2.00021 6.15 2.06021 6.4 2.18021C6.66 2.30021 6.89 2.48021 7.07 2.74021" stroke="#666666" stroke-width="1.5" stroke-miterlimit="10" stroke-linecap="round" stroke-linejoin="round"/>
</svg>
