<svg width="25" height="24" viewBox="0 0 25 24" fill="none" xmlns="http://www.w3.org/2000/svg">
<path opacity="0.4" d="M12.3221 10.87C12.2221 10.86 12.1021 10.86 11.9921 10.87C9.61211 10.79 7.72211 8.84 7.72211 6.44C7.72211 3.99 9.70211 2 12.1621 2C14.6121 2 16.6021 3.99 16.6021 6.44C16.5921 8.84 14.7021 10.79 12.3221 10.87Z" stroke="#666666" stroke-width="1.5" stroke-linecap="round" stroke-linejoin="round"/>
<path d="M7.32211 14.56C4.90211 16.18 4.90211 18.82 7.32211 20.43C10.0721 22.27 14.5821 22.27 17.3321 20.43C19.7521 18.81 19.7521 16.17 17.3321 14.56C14.5921 12.73 10.0821 12.73 7.32211 14.56Z" stroke="#666666" stroke-width="1.5" stroke-linecap="round" stroke-linejoin="round"/>
</svg>
